<svg width="1024" height="1024" viewBox="0 0 1024 1024" fill="none" xmlns="http://www.w3.org/2000/svg">
<path d="M470.4 144.16C412.48 153.12 365.6 171.2 320.8 201.76C282.08 228.16 244.48 268.96 217.6 313.6C198.72 345.12 183.2 390.24 176.64 432.8C172.96 456.8 172.96 511.04 176.64 534.4C190.24 620 235.84 697.6 304 750.72C341.12 779.52 389.92 803.2 433.6 813.44C493.12 827.36 560.16 824.48 618.4 805.28C748 762.88 839.04 648.48 851.36 512.8C853.12 492 852.48 461.92 849.6 439.2C836.64 338.56 777.92 247.36 691.52 193.76C634.08 158.08 577.76 142.24 510.08 142.56C493.12 142.72 475.2 143.36 470.4 144.16ZM556.96 157.76C628.32 167.84 694.56 201.12 743.36 251.52C772.8 281.92 789.44 304.8 804.96 336C819.04 364.64 831.52 403.84 836.96 437.6C840.16 456.96 839.68 515.36 836.16 534.24C833.12 550.72 824.32 584.64 819.52 598.4C813.28 616 789.92 658.72 776.32 677.12C765.6 691.52 739.52 719.52 725.76 731.36C694.72 757.92 648.64 783.2 608.8 795.2C596.8 798.88 564.32 805.92 549.6 808C530.08 810.72 489.12 809.92 465.44 806.4C424.96 800.32 402.72 793.28 368.48 775.84C320.32 751.52 291.84 728.64 258.4 688C210.4 629.92 185.6 559.36 185.6 482.72C185.6 443.2 188.8 424.16 202.4 380.8C223.84 312.48 269.76 251.36 330.88 210.08C350.4 196.96 386.88 179.2 409.76 171.52C429.76 164.96 444.32 161.44 468 157.6C484.64 154.88 537.12 154.88 556.96 157.76Z" fill="#594D66"/>
<path d="M483.2 176.32C388.64 187.84 314.72 230.56 262.08 304.16C237.28 338.88 220.16 379.04 211.04 423.68C206.72 444.96 204.96 498.24 208 520.8C217.6 593.6 247.2 652.8 299.36 703.2C318.72 721.92 332.16 732.16 355.04 745.76C412.16 779.84 475.68 793.76 542.56 787.2C634.72 777.92 718.24 727.52 769.44 650.4C812.64 585.12 828.48 503.84 813.6 423.04C810.56 405.76 801.28 375.36 793.92 358.4C769.92 301.92 720 246.88 664.48 215.36C608.8 183.84 541.12 169.28 483.2 176.32ZM555.2 191.36C592 196.48 626.4 208.16 657.76 225.76C749.92 277.92 806.4 374.24 806.4 479.36C806.4 580.8 764 663.84 682.4 722.4C653.92 743.04 603.68 765.12 574.4 770.24C571.36 770.72 567.04 771.52 564.8 772C546.56 775.52 501.6 776.8 478.4 774.24C372.48 762.88 280.48 693.92 240.32 595.84C195.04 485.12 220.32 357.28 304.32 273.6C369.76 208.32 461.44 178.24 555.2 191.36Z" fill="#594D66"/>
<path d="M496.8 250.72C453.28 254.24 417.76 266.4 383.36 289.12C364.16 301.92 332.96 332.32 320.48 350.4C290.56 394.24 276 445.92 280.16 493.28C286.56 566.24 313.76 620 365.44 661.92C407.36 695.84 460.48 714.24 516 714.08C534.4 714.08 541.12 713.28 565.6 707.84C610.56 697.76 654.56 671.68 686.08 636.16C718.24 600 735.36 559.84 744.16 500.96C748.96 467.84 740.64 421.76 723.04 384.16C708.48 353.12 678.72 316.8 649.76 295.04C608.64 264.16 547.68 246.4 496.8 250.72ZM505.6 383.52L505.44 504.8L499.36 490.24C484.32 453.76 460 422.56 429.76 400C404.48 381.44 371.68 369.6 337.76 366.72L324.32 365.6L334.4 352.8C378.24 297.28 431.2 268.16 497.6 263.52C501.6 263.2 504.96 262.88 505.28 262.72C505.44 262.56 505.6 316.96 505.6 383.52ZM560.8 268.32C586.08 273.76 613.76 285.76 636.32 300.96C650.88 310.88 679.04 338.4 690.88 354.4L699.2 365.6L685.92 366.72C651.2 369.44 621.76 379.84 595.52 398.4C564.16 420.48 539.68 451.68 525.6 487.2C523.2 493.28 520.64 499.84 520 501.6C519.2 503.36 518.56 450.56 518.56 384.16L518.4 263.52L534.08 264.64C542.56 265.28 554.72 266.88 560.8 268.32ZM357.28 381.76C396.8 390.08 437.6 416.48 462.72 450.24C475.2 467.04 479.52 474.72 486.88 492.8C497.12 518.24 504.16 548.32 504.96 569.6L505.76 588L500.32 574.08C486.24 538.4 470.24 513.44 444.8 487.84C405.76 448.48 360.96 428.8 311.04 428.8H297.6L298.56 424.32C300.96 414.24 311.36 389.12 316.64 380.96C318.88 377.28 319.52 377.28 332.64 378.24C340.32 378.88 351.36 380.48 357.28 381.76ZM710.72 386.4C715.36 395.04 723.84 415.68 725.44 422.56L726.4 426.72L708.32 427.84C664 430.56 630.4 443.36 596.32 470.72C565.12 495.68 535.84 537.76 522.4 576.8L518.56 588V574.24C518.24 548.48 533.44 494.56 548.16 468.48C560.64 446.24 582.72 421.92 602.72 408.32C629.76 390.08 668.8 377.28 696 378.08L706.4 378.4L710.72 386.4ZM349.92 445.44C365.76 449.76 391.68 461.92 407.2 472.48C444.8 497.6 476.16 539.68 491.68 585.6C498.88 606.56 505.6 634.88 505.6 643.52V652L497.92 634.4C479.36 592.16 450.72 555.84 414.08 528.32C380.16 502.88 349.12 491.2 309.28 488.64L291.2 487.52V474.24C291.2 462.72 292.96 449.12 295.36 441.76C296.48 438.08 331.68 440.48 349.92 445.44ZM730.24 444.32C730.72 446.88 731.68 457.44 732.32 468.16L733.28 487.52L714.72 488.48C704.48 489.12 690.88 490.72 684.48 492C618.88 505.76 551.04 569.12 522.24 644L518.56 653.6V644.8C518.4 633.12 531.68 587.2 541.6 564.32C561.12 519.68 591.2 485.44 630.4 463.04C654.72 449.12 687.36 440.64 718.56 440.16C728.96 440 729.28 440.16 730.24 444.32ZM324.64 502.56C345.6 505.12 378.56 518.24 398.24 531.68C449.76 566.4 486.88 622.24 502.4 687.84C504.16 695.2 505.28 701.6 504.8 702.08C503.52 703.36 475.36 699.04 460 695.2C443.84 691.04 418.56 680.96 403.52 672.64C362.08 649.44 326.88 609.6 308 564.96C302.08 550.88 295.2 524.32 293.44 509.28L292.48 499.52L302.56 500.32C308.16 500.64 318.08 501.76 324.64 502.56ZM730.24 510.72C725.44 555.84 699.04 607.68 664.64 639.84C628.32 673.76 577.6 697.28 530.88 701.6L518.88 702.72L523.2 685.44C530.24 658.08 534.08 646.72 542.4 629.6C570.24 571.68 621.12 524.64 672.8 508.96C691.36 503.36 704.16 501.12 718.08 500.96L731.36 500.8L730.24 510.72Z" fill="#594D66"/>
</svg>
